<svg width="118" height="42" viewBox="0 0 118 42" fill="none" xmlns="http://www.w3.org/2000/svg">
<path d="M21 29.75C25.8325 29.75 29.75 25.8325 29.75 21C29.75 16.1675 25.8325 12.25 21 12.25C16.1675 12.25 12.25 16.1675 12.25 21C12.25 25.8325 16.1675 29.75 21 29.75Z" stroke="#709C9F" stroke-width="2" stroke-linecap="round" stroke-linejoin="round"/>
<path d="M21 1.75V5.25" stroke="#709C9F" stroke-width="2" stroke-linecap="round" stroke-linejoin="round"/>
<path d="M21 36.75V40.25" stroke="#709C9F" stroke-width="2" stroke-linecap="round" stroke-linejoin="round"/>
<path d="M7.38501 7.38495L9.87001 9.86995" stroke="#709C9F" stroke-width="2" stroke-linecap="round" stroke-linejoin="round"/>
<path d="M32.13 32.13L34.615 34.615" stroke="#709C9F" stroke-width="2" stroke-linecap="round" stroke-linejoin="round"/>
<path d="M1.75 21H5.25" stroke="#709C9F" stroke-width="2" stroke-linecap="round" stroke-linejoin="round"/>
<path d="M36.75 21H40.25" stroke="#709C9F" stroke-width="2" stroke-linecap="round" stroke-linejoin="round"/>
<path d="M7.38501 34.615L9.87001 32.13" stroke="#709C9F" stroke-width="2" stroke-linecap="round" stroke-linejoin="round"/>
<path d="M32.13 9.86995L34.615 7.38495" stroke="#709C9F" stroke-width="2" stroke-linecap="round" stroke-linejoin="round"/>
<path d="M70.152 30.168C69.048 30.168 68.056 29.976 67.176 29.592C66.312 29.192 65.632 28.648 65.136 27.96C64.64 27.256 64.384 26.448 64.368 25.536H66.696C66.776 26.32 67.096 26.984 67.656 27.528C68.232 28.056 69.064 28.32 70.152 28.32C71.192 28.32 72.008 28.064 72.6 27.552C73.208 27.024 73.512 26.352 73.512 25.536C73.512 24.896 73.336 24.376 72.984 23.976C72.632 23.576 72.192 23.272 71.664 23.064C71.136 22.856 70.424 22.632 69.528 22.392C68.424 22.104 67.536 21.816 66.864 21.528C66.208 21.24 65.64 20.792 65.16 20.184C64.696 19.56 64.464 18.728 64.464 17.688C64.464 16.776 64.696 15.968 65.16 15.264C65.624 14.56 66.272 14.016 67.104 13.632C67.952 13.248 68.92 13.056 70.008 13.056C71.576 13.056 72.856 13.448 73.848 14.232C74.856 15.016 75.424 16.056 75.552 17.352H73.152C73.072 16.712 72.736 16.152 72.144 15.672C71.552 15.176 70.768 14.928 69.792 14.928C68.88 14.928 68.136 15.168 67.56 15.648C66.984 16.112 66.696 16.768 66.696 17.616C66.696 18.224 66.864 18.72 67.2 19.104C67.552 19.488 67.976 19.784 68.472 19.992C68.984 20.184 69.696 20.408 70.608 20.664C71.712 20.968 72.6 21.272 73.272 21.576C73.944 21.864 74.52 22.32 75 22.944C75.48 23.552 75.72 24.384 75.72 25.44C75.72 26.256 75.504 27.024 75.072 27.744C74.64 28.464 74 29.048 73.152 29.496C72.304 29.944 71.304 30.168 70.152 30.168ZM92.3259 30H90.1419L81.3579 16.68V30H79.1739V13.248H81.3579L90.1419 26.544V13.248H92.3259V30ZM117.313 13.272L112.465 30H110.017L106.129 16.536L102.097 30L99.6729 30.024L94.9929 13.272H97.3209L100.969 27.456L105.001 13.272H107.449L111.289 27.408L114.961 13.272H117.313Z" fill="#709C9F"/>
</svg>
